<svg xmlns="http://www.w3.org/2000/svg" width="200" height="32" viewBox="0 0 200 32">
  <defs>
    <linearGradient id="bg" x1="0%" y1="0%" x2="100%" y2="100%">
      <stop offset="0%" stop-color="#000000"/>
      <stop offset="100%" stop-color="#0a0a0a"/>
    </linearGradient>
    <linearGradient id="cyan" x1="0%" y1="0%" x2="100%" y2="100%">
      <stop offset="0%" stop-color="#00d9ff"/>
      <stop offset="100%" stop-color="#00ff9d"/>
    </linearGradient>
    <filter id="glow" x="-50%" y="-50%" width="200%" height="200%">
      <feGaussianBlur stdDeviation="0.6" result="coloredBlur"/>
      <feMerge>
        <feMergeNode in="coloredBlur"/>
        <feMergeNode in="SourceGraphic"/>
      </feMerge>
    </filter>
  </defs>

  <!-- Website Icon -->
  <g transform="translate(0, 0)">
    <a href="https://krishalshah.in">
      <rect width="32" height="32" rx="6" ry="6" fill="url(#bg)"/>
      <g transform="translate(16, 16)">
        <circle cx="0" cy="0" r="9.5" fill="none" stroke="url(#cyan)" stroke-width="1.4" filter="url(#glow)"/>
        <ellipse cx="0" cy="0" rx="4" ry="9.5" fill="none" stroke="url(#cyan)" stroke-width="1" opacity="0.7"/>
        <ellipse cx="0" cy="0" rx="9.5" ry="3" fill="none" stroke="url(#cyan)" stroke-width="1" opacity="0.5"/>
        <circle cx="0" cy="0" r="1.5" fill="url(#cyan)" filter="url(#glow)"/>
      </g>
    </a>
  </g>

  <!-- LinkedIn Icon -->
  <g transform="translate(42, 0)">
    <a href="https://linkedin.com/in/krishal-shah">
      <rect width="32" height="32" rx="6" ry="6" fill="url(#bg)"/>
      <g transform="translate(6, 6) scale(1.3)">
        <path fill="url(#cyan)" filter="url(#glow)" d="M0 1.146C0 .513.526 0 1.175 0h13.65C15.474 0 16 .513 16 1.146v13.708c0 .633-.526 1.146-1.175 1.146H1.175C.526 16 0 15.487 0 14.854zm4.943 12.248V6.169H2.542v7.225zm-1.2-8.212c.837 0 1.358-.554 1.358-1.248-.015-.709-.52-1.248-1.342-1.248S2.4 3.226 2.4 3.934c0 .694.521 1.248 1.327 1.248zm4.908 8.212V9.359c0-.216.016-.432.08-.586.173-.431.568-.878 1.232-.878.869 0 1.216.662 1.216 1.634v3.865h2.401V9.25c0-2.22-1.184-3.252-2.764-3.252-1.274 0-1.845.7-2.165 1.193v.025h-.016l.016-.025V6.169h-2.4c.03.678 0 7.225 0 7.225z"/>
      </g>
    </a>
  </g>

  <!-- GitHub Icon -->
  <g transform="translate(84, 0)">
    <a href="https://github.com/LuciKritZ">
      <rect width="32" height="32" rx="6" ry="6" fill="url(#bg)"/>
      <g transform="translate(4, 4) scale(1)">
        <path fill="url(#cyan)" filter="url(#glow)" d="M12 .297c-6.63 0-12 5.373-12 12 0 5.303 3.438 9.8 8.205 11.385.6.113.82-.258.82-.577 0-.285-.01-1.04-.015-2.04-3.338.724-4.042-1.61-4.042-1.61C4.422 18.07 3.633 17.7 3.633 17.7c-1.087-.744.084-.729.084-.729 1.205.084 1.838 1.236 1.838 1.236 1.07 1.835 2.809 1.305 3.495.998.108-.776.417-1.305.76-1.605-2.665-.3-5.466-1.332-5.466-5.93 0-1.31.465-2.38 1.235-3.22-.135-.303-.54-1.523.105-3.176 0 0 1.005-.322 3.3 1.23.96-.267 1.98-.399 3-.405 1.02.006 2.04.138 3 .405 2.28-1.552 3.285-1.23 3.285-1.23.645 1.653.24 2.873.12 3.176.765.84 1.23 1.91 1.23 3.22 0 4.61-2.805 5.625-5.475 5.92.42.36.81 1.096.81 2.22 0 1.606-.015 2.896-.015 3.286 0 .315.21.69.825.57C20.565 22.092 24 17.592 24 12.297c0-6.627-5.373-12-12-12"/>
      </g>
    </a>
  </g>

  <!-- YouTube Icon -->
  <g transform="translate(126, 0)">
    <a href="https://www.youtube.com/channel/UCIaADk_WTnmTsRk6scstMIQ">
      <rect width="32" height="32" rx="6" ry="6" fill="url(#bg)"/>
      <g transform="translate(4, 4) scale(1)">
        <path fill="url(#cyan)" filter="url(#glow)" d="M23.498 6.186a3.016 3.016 0 0 0-2.122-2.136C19.505 3.545 12 3.545 12 3.545s-7.505 0-9.377.505A3.017 3.017 0 0 0 .502 6.186C0 8.07 0 12 0 12s0 3.93.502 5.814a3.016 3.016 0 0 0 2.122 2.136c1.871.505 9.376.505 9.376.505s7.505 0 9.377-.505a3.015 3.015 0 0 0 2.122-2.136C24 15.93 24 12 24 12s0-3.93-.502-5.814zM9.545 15.568V8.432L15.818 12l-6.273 3.568z"/>
      </g>
    </a>
  </g>

  <!-- X Icon -->
  <g transform="translate(168, 0)">
    <a href="https://x.com/lucikritz">
      <rect width="32" height="32" rx="6" ry="6" fill="url(#bg)"/>
      <g transform="translate(4, 4) scale(1)">
        <path fill="url(#cyan)" filter="url(#glow)" d="M18.244 2.75h3.156l-6.895 7.85 8.088 11.396H16.24l-5.047-7.03-5.76 7.03H2.075l7.355-8.416L2.958 2.75h6.506l4.557 6.388 4.223-6.388zm-1.12 17.243h1.744L9.446 4.126H7.582l9.542 15.867z"></path>
      </g>
    </a>
  </g>
</svg>
